<?xml version="1.0" encoding="UTF-8" standalone="no"?>
<svg
   xmlns:dc="http://purl.org/dc/elements/1.1/"
   xmlns:cc="http://creativecommons.org/ns#"
   xmlns:rdf="http://www.w3.org/1999/02/22-rdf-syntax-ns#"
   xmlns:svg="http://www.w3.org/2000/svg"
   xmlns="http://www.w3.org/2000/svg"
   xmlns:sodipodi="http://sodipodi.sourceforge.net/DTD/sodipodi-0.dtd"
   xmlns:inkscape="http://www.inkscape.org/namespaces/inkscape"
   version="1.1"
   width="61.440102"
   height="24.719801"
   id="svg9"
   viewBox="0 0 61.440102 24.719801"
   sodipodi:docname="Banner.cdr">
  <metadata
     id="metadata15">
    <rdf:RDF>
      <cc:Work
         rdf:about="">
        <dc:format>image/svg+xml</dc:format>
        <dc:type
           rdf:resource="http://purl.org/dc/dcmitype/StillImage" />
      </cc:Work>
    </rdf:RDF>
  </metadata>
  <defs
     id="defs13" />
  <sodipodi:namedview
     pagecolor="#ffffff"
     bordercolor="#666666"
     borderopacity="1"
     objecttolerance="10"
     gridtolerance="10"
     guidetolerance="10"
     inkscape:pageopacity="0"
     inkscape:pageshadow="2"
     inkscape:window-width="640"
     inkscape:window-height="480"
     id="namedview11" />
  <path
     d="m 1e-4,1.2 v 22.3198 q 0,1.2 1.2,1.2 H 60.24 q 1.2,0 1.2,-1.2 V 1.2 Q 61.44,0 60.24,0 H 1.2001 q -1.2,0 -1.2,1.2 z"
     style="fill:#ffffff;fill-rule:evenodd"
     id="path2" />
  <g
     id="Layer1000">
    <path
       d="m 23.9096,7.4069 v 10.5967 q 0,0.6623 0.6623,0.6623 h 10.5968 q 0.6623,0 0.6623,-0.6623 V 7.4069 q 0,-0.6623 -0.6623,-0.6623 H 24.5719 q -0.6623,0 -0.6623,0.6623 z"
       style="fill:#e44c4c;fill-rule:evenodd;stroke:#e44c4c;stroke-width:0.216;stroke-linecap:butt;stroke-linejoin:miter;stroke-dasharray:none"
       id="path4" />
    <path
       d="m 29.0979,12.4998 -2.5722,-2.4913 v 5.5528 c 0.2155,0.0832 0.3874,0.2538 0.4723,0.4685 h 5.7517 c 0.0887,-0.2021 0.2558,-0.362 0.4627,-0.4412 V 13.4783 C 33.0015,13.3966 32.8323,13.231 32.746,13.0224 l -2.0836,-10e-5 c -0.1277,0.2924 -0.4194,0.4968 -0.7589,0.4968 -0.4573,0 -0.8279,-0.3706 -0.8279,-0.8278 0,-0.066 0.0078,-0.13 0.0223,-0.1915 z m 0.4035,-0.5323 c 0.119,-0.0663 0.2562,-0.1041 0.4021,-0.1041 0.111,0 0.217,0.022 0.3138,0.0617 L 32.7812,9.436 C 32.7659,9.4071 32.7523,9.3773 32.7404,9.3466 h -5.7401 c -0.0181,0.047 -0.0404,0.0919 -0.0664,0.1343 z m 3.2575,0.3926 c 0.0896,-0.1946 0.2527,-0.3486 0.4535,-0.4264 V 9.9404 L 30.7201,12.36 Z m 1.1184,-0.3967 c 0.2735,0.1351 0.4617,0.4168 0.4617,0.7426 0,0.3258 -0.1882,0.6075 -0.4617,0.7426 v 2.1724 c 0.2719,0.1357 0.4586,0.4165 0.4586,0.7411 0,0.4572 -0.3706,0.8278 -0.8279,0.8278 -0.3389,0 -0.6302,-0.2037 -0.7583,-0.4954 H 26.973 c -0.134,0.2766 -0.4174,0.4672 -0.7453,0.4672 -0.4572,0 -0.8278,-0.3706 -0.8278,-0.8278 0,-0.3266 0.189,-0.6088 0.4635,-0.7436 V 9.7922 C 25.5888,9.6574 25.3998,9.3751 25.3998,9.0486 c 0,-0.4572 0.3707,-0.8279 0.8279,-0.8279 0.3265,0 0.6087,0.1891 0.7436,0.4636 h 5.7982 c 0.1347,-0.2745 0.417,-0.4635 0.7435,-0.4635 0.4572,0 0.8278,0.3706 0.8278,0.8278 0,0.3265 -0.189,0.6088 -0.4635,0.7435 z"
       style="fill:#ffffff;fill-rule:evenodd"
       id="path6" />
  </g>
</svg>
