<?xml version="1.0" standalone="no"?>
<!DOCTYPE svg PUBLIC "-//W3C//DTD SVG 20010904//EN"
 "http://www.w3.org/TR/2001/REC-SVG-20010904/DTD/svg10.dtd">
<svg version="1.0" xmlns="http://www.w3.org/2000/svg"
 width="512.000000pt" height="512.000000pt" viewBox="0 0 512.000000 512.000000"
 preserveAspectRatio="xMidYMid meet">

<g transform="translate(0.000000,512.000000) scale(0.100000,-0.100000)"
fill="#000000" stroke="none">
<path d="M2478 5109 c-166 -19 -306 -86 -423 -204 -93 -93 -135 -160 -178
-282 -29 -81 -31 -98 -32 -220 0 -72 -1 -131 -1 -130 -1 1 -19 23 -41 49 -55
67 -152 142 -236 182 -180 86 -370 95 -559 26 -401 -146 -585 -621 -388 -1000
44 -83 102 -157 172 -218 l45 -38 -111 0 c-135 0 -208 -18 -331 -78 -198 -97
-339 -283 -381 -502 -30 -159 -10 -302 63 -454 39 -81 59 -108 137 -186 78
-78 105 -98 186 -137 119 -57 229 -81 349 -75 l86 4 -80 -80 c-139 -140 -203
-284 -212 -476 -6 -136 12 -226 71 -345 75 -150 171 -249 317 -325 169 -88
374 -104 552 -42 121 41 189 84 282 178 l81 80 -4 -87 c-6 -120 18 -230 75
-349 39 -81 59 -108 137 -186 100 -99 176 -145 306 -186 97 -30 279 -32 380
-5 248 67 446 266 511 514 15 56 21 110 21 190 l0 111 39 -45 c67 -77 141
-133 234 -178 122 -59 220 -79 349 -72 189 10 333 75 472 212 66 66 89 97 127
175 26 52 55 124 64 160 22 86 21 253 -1 340 -37 139 -133 293 -234 375 l-48
40 130 1 c113 0 142 4 211 27 240 79 427 283 481 525 24 109 15 291 -20 390
-64 184 -193 331 -361 412 -116 56 -191 73 -320 73 l-110 1 82 82 c66 67 90
100 127 176 62 125 80 199 79 328 0 125 -18 202 -73 315 -120 246 -364 399
-640 398 -129 0 -204 -18 -330 -80 -77 -38 -109 -61 -176 -128 l-82 -81 0 105
c1 69 -5 131 -17 176 -87 351 -420 585 -777 544z m172 -315 c130 -29 243 -127
291 -251 16 -43 22 -80 22 -143 1 -100 -17 -159 -74 -242 l-39 -58 0 -417 0
-418 299 299 298 298 6 56 c3 32 19 82 37 119 80 162 256 255 427 226 182 -32
311 -160 345 -342 40 -214 -133 -445 -350 -467 l-60 -7 -298 -298 -299 -299
424 0 423 0 49 36 c197 145 472 90 597 -118 99 -166 67 -377 -78 -511 -73 -68
-145 -98 -252 -105 -99 -6 -191 21 -266 78 l-52 40 -423 0 -422 0 298 -298
298 -298 66 -11 c182 -32 311 -160 345 -342 32 -169 -66 -352 -229 -433 -64
-31 -74 -33 -173 -33 -97 0 -110 2 -170 31 -76 36 -129 79 -170 139 -34 49
-70 151 -70 197 0 30 -28 61 -300 333 l-300 300 0 -422 0 -423 34 -45 c128
-168 105 -401 -55 -550 -83 -76 -147 -99 -274 -100 -92 0 -105 3 -165 31 -95
46 -153 101 -197 192 -37 73 -38 80 -38 181 0 95 3 112 27 164 15 32 41 76 58
97 l30 38 0 416 c0 229 -3 416 -8 416 -4 0 -138 -132 -298 -293 l-291 -292
-12 -69 c-24 -137 -106 -248 -229 -308 -127 -63 -305 -46 -417 40 -67 51 -121
124 -146 201 -32 96 -24 215 20 305 61 124 171 206 306 228 l63 11 298 298
299 299 -417 0 -418 0 -65 -45 c-87 -59 -155 -79 -260 -73 -267 14 -444 269
-366 526 32 108 100 189 201 241 142 74 311 60 435 -35 l45 -34 423 0 422 0
-299 299 -298 298 -55 6 c-65 7 -165 51 -217 97 -132 116 -174 320 -99 481 77
165 262 263 436 231 180 -34 309 -165 339 -346 l11 -64 298 -298 299 -299 0
422 0 423 -40 52 c-85 111 -105 286 -47 411 36 80 123 168 197 201 103 47 167
54 270 30z"/>
</g>
</svg>
