<?xml version="1.0" encoding="UTF-8" standalone="no"?>
<svg
   xmlns:dc="http://purl.org/dc/elements/1.1/"
   xmlns:cc="http://creativecommons.org/ns#"
   xmlns:rdf="http://www.w3.org/1999/02/22-rdf-syntax-ns#"
   xmlns:svg="http://www.w3.org/2000/svg"
   xmlns="http://www.w3.org/2000/svg"
   viewBox="0 0 30.7199 30.7199"
   id="svg2"
   height="30.7199"
   width="30.7199"
   version="1.1">
  <metadata
     id="metadata12">
    <rdf:RDF>
      <cc:Work
         rdf:about="">
        <dc:format>image/svg+xml</dc:format>
        <dc:type
           rdf:resource="http://purl.org/dc/dcmitype/StillImage" />
      </cc:Work>
    </rdf:RDF>
  </metadata>
  <defs
     id="defs10" />
  <path
     id="path4"
     style="fill:#e44c4c;fill-rule:evenodd;stroke:#e44c4c;stroke-width:0.21600001;stroke-linecap:butt;stroke-linejoin:miter;stroke-dasharray:none"
     d="m 0.0658,2.0369 0,27.3066 q 0,1.7066 1.7067,1.7066 l 27.3065,0 q 1.7067,0 1.7067,-1.7066 l 0,-27.3066 q 0,-1.7067 -1.7067,-1.7067 l -27.3065,0 q -1.7067,0 -1.7067,1.7067 z" />
  <path
     id="path6"
     style="fill:#ffffff;fill-rule:evenodd"
     d="M 13.4354,15.1607 6.807,8.741 l 0,14.3089 c 0.5554,0.2143 0.9984,0.6539 1.2171,1.2073 l 14.8214,0 c 0.2286,-0.5207 0.6591,-0.9329 1.1925,-1.1369 l 0,-5.4381 C 23.4944,17.4718 23.0584,17.045 22.836,16.5074 l -5.3691,-2e-4 c -0.3292,0.7535 -1.0809,1.2802 -1.9557,1.2802 -1.1782,0 -2.1332,-0.955 -2.1332,-2.1332 0,-0.1699 0.0199,-0.335 0.0574,-0.4935 z m 1.0397,-1.3717 c 0.3066,-0.1707 0.6602,-0.2681 1.0361,-0.2681 0.2862,0 0.5594,0.0567 0.8087,0.1589 L 22.9267,7.2657 C 22.8872,7.1913 22.8523,7.1145 22.8217,7.0353 l -14.7915,0 C 7.9834,7.1564 7.926,7.2721 7.8591,7.3814 l 6.616,6.4076 z m 8.3942,1.0117 c 0.231,-0.5015 0.6511,-0.8982 1.1687,-1.0988 l 0,-5.1363 -6.4226,6.2349 5.2539,2e-4 z m 2.8819,-1.0222 c 0.7049,0.3481 1.1899,1.074 1.1899,1.9136 0,0.8395 -0.485,1.5654 -1.1899,1.9135 l 0,5.5981 c 0.7007,0.3498 1.1818,1.0734 1.1818,1.9098 0,1.1782 -0.955,2.1332 -2.1332,2.1332 -0.8735,0 -1.6241,-0.5251 -1.9541,-1.2766 l -14.8859,0 c -0.3453,0.7126 -1.0756,1.2038 -1.9206,1.2038 -1.1782,0 -2.1332,-0.955 -2.1332,-2.1332 0,-0.8414 0.4872,-1.5687 1.1945,-1.916 l 0,-14.9411 C 4.393,7.8361 3.9058,7.1088 3.9058,6.2675 3.9058,5.0893 4.861,4.134 6.0392,4.134 c 0.8414,0 1.5687,0.4872 1.9162,1.1947 l 14.9411,0 c 0.3473,-0.7073 1.0746,-1.1945 1.916,-1.1945 1.1782,0 2.1332,0.9551 2.1332,2.1333 0,0.8413 -0.4872,1.5686 -1.1945,1.9159 l 0,5.5951 z" />
</svg>
