<svg width="685" height="466" viewBox="0 0 685 466" fill="none" xmlns="http://www.w3.org/2000/svg">
<g clip-path="url(#clip0)">
<path d="M674.32 1.29027e-08H198.037C196.223 0.00185325 194.484 0.812258 193.201 2.25332C191.918 3.69439 191.197 5.64834 191.195 7.68628V370.246C191.197 372.284 191.918 374.238 193.201 375.679C194.484 377.12 196.223 377.931 198.037 377.933H674.32C675.309 377.933 676.287 377.692 677.185 377.226C678.083 376.76 678.881 376.081 679.522 375.235C679.577 375.169 679.627 375.098 679.672 375.024C680.08 374.463 680.411 373.836 680.652 373.164C680.997 372.24 681.173 371.248 681.17 370.246V7.6863C681.168 5.64692 680.445 3.69184 679.161 2.25061C677.877 0.809369 676.135 -0.000118004 674.32 1.29027e-08ZM679.216 370.246C679.217 371.319 678.936 372.368 678.408 373.261C677.939 374.047 677.302 374.69 676.556 375.13C675.865 375.531 675.098 375.739 674.32 375.738H198.037C196.741 375.736 195.499 375.157 194.582 374.127C193.666 373.098 193.15 371.702 193.149 370.246V7.6863C193.15 6.23042 193.666 4.83467 194.582 3.8052C195.499 2.77574 196.741 2.19661 198.037 2.19484H674.32C675.617 2.19466 676.862 2.77287 677.78 3.8025C678.698 4.83213 679.214 6.22899 679.216 7.6863V370.246Z" fill="#3F3D56"/>
<path d="M680.189 30.8062H192.17V33.0034H680.189V30.8062Z" fill="#3F3D56"/>
<path d="M208.796 23.0717C212.037 23.0717 214.664 20.1204 214.664 16.4798C214.664 12.8392 212.037 9.88788 208.796 9.88788C205.555 9.88788 202.928 12.8392 202.928 16.4798C202.928 20.1204 205.555 23.0717 208.796 23.0717Z" fill="#3F3D56"/>
<path d="M225.666 23.0717C228.907 23.0717 231.534 20.1204 231.534 16.4798C231.534 12.8392 228.907 9.88788 225.666 9.88788C222.426 9.88788 219.798 12.8392 219.798 16.4798C219.798 20.1204 222.426 23.0717 225.666 23.0717Z" fill="#3F3D56"/>
<path d="M242.537 23.0717C245.777 23.0717 248.405 20.1204 248.405 16.4798C248.405 12.8392 245.777 9.88788 242.537 9.88788C239.296 9.88788 236.669 12.8392 236.669 16.4798C236.669 20.1204 239.296 23.0717 242.537 23.0717Z" fill="#3F3D56"/>
<path d="M622.318 190.105H241.762C238.225 190.1 234.835 188.52 232.334 185.711C229.833 182.902 228.427 179.093 228.423 175.12V84.33C228.427 80.3572 229.833 76.5483 232.334 73.7391C234.835 70.9299 238.225 69.3497 241.762 69.3452H622.318C625.854 69.3497 629.245 70.9299 631.745 73.7391C634.246 76.5483 635.653 80.3572 635.657 84.33V175.12C635.653 179.093 634.246 182.902 631.745 185.711C629.245 188.52 625.854 190.1 622.318 190.105ZM241.762 71.1082C238.641 71.1121 235.65 72.5064 233.443 74.9851C231.237 77.4638 229.996 80.8246 229.992 84.33V175.12C229.996 178.625 231.237 181.986 233.443 184.465C235.65 186.943 238.641 188.338 241.762 188.342H622.318C625.438 188.338 628.43 186.943 630.636 184.465C632.843 181.986 634.084 178.625 634.087 175.12V84.33C634.084 80.8246 632.843 77.4638 630.636 74.9851C628.43 72.5064 625.438 71.1121 622.318 71.1082H241.762Z" fill="#F2F2F2"/>
<path d="M325.72 354.055H241.762C238.225 354.051 234.835 352.471 232.334 349.661C229.833 346.852 228.427 343.043 228.423 339.07V272.08C228.427 268.107 229.833 264.298 232.334 261.489C234.835 258.68 238.225 257.1 241.762 257.095H325.72C329.256 257.1 332.647 258.68 335.147 261.489C337.648 264.298 339.055 268.107 339.059 272.08V339.07C339.055 343.043 337.648 346.852 335.147 349.661C332.647 352.471 329.256 354.051 325.72 354.055ZM241.762 258.858C238.641 258.862 235.65 260.256 233.443 262.735C231.237 265.214 229.996 268.575 229.992 272.08V339.07C229.996 342.576 231.237 345.937 233.443 348.415C235.65 350.894 238.641 352.288 241.762 352.292H325.72C328.84 352.288 331.832 350.894 334.038 348.415C336.245 345.937 337.486 342.576 337.489 339.07V272.08C337.486 268.575 336.245 265.214 334.038 262.735C331.832 260.256 328.84 258.862 325.72 258.858H241.762Z" fill="#F2F2F2"/>
<path d="M622.318 354.055H538.36C534.824 354.051 531.433 352.471 528.932 349.661C526.432 346.852 525.025 343.043 525.021 339.07V272.08C525.025 268.107 526.432 264.298 528.932 261.489C531.433 258.68 534.824 257.1 538.36 257.095H622.318C625.854 257.1 629.245 258.68 631.745 261.489C634.246 264.298 635.653 268.107 635.657 272.08V339.07C635.653 343.043 634.246 346.852 631.745 349.661C629.245 352.471 625.854 354.051 622.318 354.055ZM538.36 258.858C535.24 258.862 532.248 260.256 530.041 262.735C527.835 265.214 526.594 268.575 526.59 272.08V339.07C526.594 342.576 527.835 345.937 530.041 348.415C532.248 350.894 535.24 352.288 538.36 352.292H622.318C625.438 352.288 628.43 350.894 630.636 348.415C632.843 345.937 634.084 342.576 634.087 339.07V272.08C634.084 268.575 632.843 265.214 630.636 262.735C628.43 260.256 625.438 258.862 622.318 258.858H538.36Z" fill="#F2F2F2"/>
<path d="M480.296 354.055H396.338C392.802 354.051 389.411 352.471 386.91 349.661C384.41 346.852 383.003 343.043 382.999 339.07V272.08C383.003 268.107 384.41 264.298 386.91 261.489C389.411 258.68 392.802 257.1 396.338 257.095H480.296C483.832 257.1 487.223 258.68 489.723 261.489C492.224 264.298 493.631 268.107 493.635 272.08V339.07C493.631 343.043 492.224 346.852 489.723 349.661C487.223 352.471 483.832 354.051 480.296 354.055ZM396.338 258.858C393.218 258.862 390.226 260.256 388.019 262.735C385.813 265.214 384.572 268.575 384.568 272.08V339.07C384.572 342.576 385.813 345.937 388.019 348.415C390.226 350.894 393.218 352.288 396.338 352.292H480.296C483.416 352.288 486.408 350.894 488.614 348.415C490.821 345.937 492.062 342.576 492.065 339.07V272.08C492.062 268.575 490.821 265.214 488.614 262.735C486.408 260.256 483.416 258.862 480.296 258.858H396.338Z" fill="#F2F2F2"/>
<path d="M233.092 73.4792L232.719 75.1913L634.685 185.672L635.058 183.96L233.092 73.4792Z" fill="#F2F2F2"/>
<path d="M630.979 73.452L232.723 184.287L233.1 185.998L631.356 75.1632L630.979 73.452Z" fill="#F2F2F2"/>
<path d="M638.011 220.515H257.455C254.023 220.51 250.732 218.977 248.305 216.25C245.877 213.523 244.512 209.827 244.508 205.971V115.181C244.512 111.325 245.877 107.628 248.305 104.901C250.732 102.175 254.023 100.641 257.455 100.637H638.011C641.443 100.641 644.734 102.175 647.161 104.901C649.588 107.628 650.953 111.325 650.957 115.181V205.971C650.953 209.827 649.588 213.523 647.161 216.25C644.734 218.976 641.443 220.51 638.011 220.515Z" fill="white"/>
<path d="M388.262 261.075L387.296 262.465L487.862 350.592L488.827 349.202L388.262 261.075Z" fill="#F2F2F2"/>
<path d="M488.364 261.076L389.118 350.289L390.099 351.665L489.344 262.452L488.364 261.076Z" fill="#F2F2F2"/>
<path d="M233.685 261.076L232.719 262.466L333.285 350.592L334.25 349.202L233.685 261.076Z" fill="#F2F2F2"/>
<path d="M333.788 261.076L234.542 350.289L235.522 351.665L334.768 262.452L333.788 261.076Z" fill="#F2F2F2"/>
<path d="M530.284 261.075L529.319 262.465L629.884 350.591L630.849 349.201L530.284 261.075Z" fill="#F2F2F2"/>
<path d="M630.386 261.076L531.14 350.289L532.12 351.665L631.366 262.452L630.386 261.076Z" fill="#F2F2F2"/>
<path d="M492.066 417.961H408.108C404.675 417.956 401.385 416.423 398.957 413.696C396.53 410.97 395.165 407.273 395.161 403.417V336.426C395.165 332.57 396.53 328.873 398.957 326.147C401.385 323.42 404.675 321.886 408.108 321.882H492.066C495.498 321.886 498.789 323.42 501.216 326.147C503.643 328.873 505.008 332.57 505.012 336.426V403.417C505.008 407.273 503.643 410.97 501.216 413.696C498.789 416.423 495.498 417.956 492.066 417.961Z" fill="#E73F3F"/>
<path d="M535.916 419.283H364.078C363.87 419.283 363.67 419.19 363.523 419.025C363.376 418.859 363.293 418.635 363.293 418.401C363.293 418.168 363.376 417.943 363.523 417.778C363.67 417.613 363.87 417.52 364.078 417.52H535.916C536.124 417.52 536.324 417.613 536.471 417.778C536.618 417.943 536.701 418.168 536.701 418.401C536.701 418.635 536.618 418.859 536.471 419.025C536.324 419.19 536.124 419.283 535.916 419.283Z" fill="#CCCCCC"/>
<path d="M172.623 466H0.784651C0.576548 466 0.376969 465.907 0.229818 465.742C0.0826677 465.577 0 465.352 0 465.119C0 464.885 0.0826677 464.661 0.229818 464.495C0.376969 464.33 0.576548 464.237 0.784651 464.237H172.623C172.831 464.237 173.031 464.33 173.178 464.495C173.325 464.661 173.408 464.885 173.408 465.119C173.408 465.352 173.325 465.577 173.178 465.742C173.031 465.907 172.831 466 172.623 466Z" fill="#CCCCCC"/>
<path d="M461.035 365.073H439.065C437.4 365.073 435.803 364.331 434.626 363.008C433.449 361.686 432.787 359.892 432.787 358.022C432.787 356.152 433.449 354.358 434.626 353.036C435.803 351.713 437.4 350.97 439.065 350.97H461.035C462.7 350.97 464.296 351.713 465.473 353.036C466.651 354.358 467.312 356.152 467.312 358.022C467.312 359.892 466.651 361.686 465.473 363.008C464.296 364.331 462.7 365.073 461.035 365.073Z" fill="white"/>
<path d="M474.019 388.873H426.155C424.49 388.873 422.893 388.13 421.716 386.807C420.539 385.485 419.878 383.691 419.878 381.821C419.878 379.951 420.539 378.157 421.716 376.835C422.893 375.512 424.49 374.769 426.155 374.769H474.019C475.683 374.769 477.28 375.512 478.457 376.835C479.634 378.157 480.296 379.951 480.296 381.821C480.296 383.691 479.634 385.485 478.457 386.807C477.28 388.13 475.683 388.873 474.019 388.873Z" fill="white"/>
<path d="M339.059 366.836H255.101C251.669 366.832 248.378 365.298 245.951 362.572C243.523 359.845 242.158 356.148 242.154 352.292V285.302C242.158 281.446 243.523 277.749 245.951 275.022C248.378 272.296 251.669 270.762 255.101 270.758H339.059C342.491 270.762 345.782 272.296 348.209 275.022C350.636 277.749 352.002 281.446 352.005 285.302V352.292C352.002 356.148 350.636 359.845 348.209 362.572C345.782 365.298 342.491 366.832 339.059 366.836Z" fill="#E73F3F"/>
<path d="M308.028 313.949H286.058C284.393 313.949 282.796 313.206 281.619 311.884C280.442 310.561 279.781 308.768 279.781 306.897C279.781 305.027 280.442 303.234 281.619 301.911C282.796 300.589 284.393 299.846 286.058 299.846H308.028C309.693 299.846 311.289 300.589 312.467 301.911C313.644 303.234 314.305 305.027 314.305 306.897C314.305 308.768 313.644 310.561 312.467 311.884C311.289 313.206 309.693 313.949 308.028 313.949Z" fill="white"/>
<path d="M321.012 337.748H273.148C271.483 337.748 269.887 337.005 268.709 335.683C267.532 334.36 266.871 332.567 266.871 330.697C266.871 328.826 267.532 327.033 268.709 325.71C269.887 324.388 271.483 323.645 273.148 323.645H321.012C322.677 323.645 324.273 324.388 325.45 325.71C326.628 327.033 327.289 328.826 327.289 330.697C327.289 332.567 326.628 334.36 325.45 335.683C324.273 337.005 322.677 337.748 321.012 337.748Z" fill="white"/>
<path d="M640.365 392.399H556.407C552.974 392.394 549.684 390.86 547.256 388.134C544.829 385.407 543.464 381.71 543.46 377.855V310.864C543.464 307.008 544.829 303.311 547.256 300.585C549.684 297.858 552.974 296.324 556.407 296.32H640.365C643.797 296.324 647.088 297.858 649.515 300.585C651.942 303.311 653.307 307.008 653.311 310.864V377.855C653.307 381.71 651.942 385.407 649.515 388.134C647.088 390.86 643.797 392.394 640.365 392.399Z" fill="#E6E6E6"/>
<path d="M609.334 339.511H587.364C585.699 339.511 584.102 338.768 582.925 337.446C581.748 336.123 581.086 334.33 581.086 332.46C581.086 330.589 581.748 328.796 582.925 327.473C584.102 326.151 585.699 325.408 587.364 325.408H609.334C610.999 325.408 612.595 326.151 613.772 327.473C614.95 328.796 615.611 330.589 615.611 332.46C615.611 334.33 614.95 336.123 613.772 337.446C612.595 338.768 610.999 339.511 609.334 339.511Z" fill="white"/>
<path d="M622.318 363.311H574.454C572.789 363.311 571.193 362.568 570.015 361.245C568.838 359.923 568.177 358.129 568.177 356.259C568.177 354.389 568.838 352.595 570.015 351.273C571.193 349.95 572.789 349.207 574.454 349.207H622.318C623.982 349.207 625.579 349.95 626.756 351.273C627.933 352.595 628.595 354.389 628.595 356.259C628.595 358.129 627.933 359.923 626.756 361.245C625.579 362.568 623.982 363.311 622.318 363.311Z" fill="white"/>
<path d="M236.451 305.519V294.713L199.346 289.571L199.347 305.521L236.451 305.519Z" fill="#A0616A"/>
<path d="M245.382 273.871L245.383 307.834L233.702 307.835L233.702 286.994C233.701 283.514 234.932 280.176 237.123 277.715C239.313 275.254 242.284 273.871 245.382 273.871Z" fill="#2F2E41"/>
<path d="M71.211 453.881L80.8309 453.881L85.4069 412.198L71.2095 412.199L71.211 453.881Z" fill="#A0616A"/>
<path d="M99.3833 463.914L69.1501 463.916L69.1496 450.794L87.7018 450.793C90.7998 450.793 93.7709 452.175 95.9616 454.636C98.1524 457.097 99.3832 460.434 99.3833 463.914Z" fill="#2F2E41"/>
<path d="M83.1076 438.861C82.9932 438.861 82.8777 438.855 82.7616 438.844L69.6598 437.618C69.1166 437.567 68.5883 437.394 68.1066 437.107C67.6249 436.821 67.1999 436.428 66.8572 435.952C66.5146 435.476 66.2613 434.927 66.1129 434.337C65.9644 433.748 65.9237 433.132 65.9934 432.525L72.7928 373.116C72.8191 372.885 72.8192 372.651 72.7932 372.42L61.9923 276.668C61.9211 276.035 61.9695 275.393 62.1345 274.783C62.2994 274.172 62.5771 273.608 62.9495 273.127C63.3219 272.645 63.7805 272.258 64.2954 271.989C64.8102 271.72 65.3698 271.577 65.9374 271.568L104.145 270.959C104.339 270.958 104.534 270.971 104.727 270.997L104.831 271.03L112.18 274.603L219.02 287.821C219.991 287.966 220.883 288.501 221.53 289.327C222.177 290.154 222.535 291.216 222.538 292.316V307.769C222.538 308.409 222.418 309.041 222.185 309.624C221.952 310.207 221.612 310.728 221.187 311.154C220.762 311.579 220.262 311.898 219.719 312.091C219.176 312.283 218.604 312.345 218.038 312.271L156.316 304.189C156.004 304.147 155.688 304.174 155.385 304.269L106.576 319.381C106.131 319.519 105.73 319.797 105.42 320.18C105.109 320.564 104.902 321.038 104.821 321.549L87.0717 435.113C86.91 436.162 86.4237 437.114 85.6984 437.799C84.9731 438.485 84.0556 438.861 83.1076 438.861Z" fill="#2F2E41"/>
<path d="M79.9766 184.206C94.5227 184.206 106.315 170.959 106.315 154.619C106.315 138.278 94.5227 125.031 79.9766 125.031C65.4306 125.031 53.6387 138.278 53.6387 154.619C53.6387 170.959 65.4306 184.206 79.9766 184.206Z" fill="#2F2E41"/>
<path d="M70.7635 135.721C76.7825 135.721 81.6619 130.24 81.6619 123.478C81.6619 116.716 76.7825 111.235 70.7635 111.235C64.7444 111.235 59.865 116.716 59.865 123.478C59.865 130.24 64.7444 135.721 70.7635 135.721Z" fill="#2F2E41"/>
<path d="M56.2322 116.846C56.2323 113.82 57.2301 110.901 59.033 108.653C60.8359 106.404 63.3162 104.985 65.9954 104.67C65.6182 104.626 65.2393 104.604 64.8602 104.603C61.9713 104.606 59.2016 105.897 57.1598 108.193C55.1179 110.489 53.9709 113.601 53.9709 116.846C53.9709 120.092 55.1179 123.204 57.1598 125.5C59.2016 127.796 61.9713 129.087 64.8602 129.09C65.2393 129.089 65.6182 129.067 65.9954 129.023C63.3162 128.708 60.8359 127.289 59.033 125.04C57.2301 122.792 56.2323 119.873 56.2322 116.846Z" fill="#2F2E41"/>
<path d="M83.0793 287.655C76.5368 287.655 69.2593 285.62 61.683 279.946L61.5547 279.849L61.5191 279.682C61.4486 279.349 54.4781 246.206 54.3408 220.536C54.2985 216.029 55.2165 211.575 57.0182 207.547C58.8199 203.519 61.4529 200.034 64.6977 197.382C67.8164 194.757 71.4488 193.009 75.2916 192.283C79.1343 191.558 83.0758 191.875 86.7871 193.209C87.2775 193.384 87.7692 193.572 88.2621 193.772C93.4072 195.93 97.7799 199.924 100.71 205.143C103.639 210.361 104.964 216.515 104.48 222.661C103.487 236.224 103.088 260.927 111.586 273.979L111.785 274.284L111.546 274.551C111.382 274.735 99.5642 287.655 83.0793 287.655Z" fill="#CCCCCC"/>
<path d="M79.9015 185.685C90.545 185.685 99.1733 175.992 99.1733 164.036C99.1733 152.079 90.545 142.386 79.9015 142.386C69.2579 142.386 60.6296 152.079 60.6296 164.036C60.6296 175.992 69.2579 185.685 79.9015 185.685Z" fill="#A0616A"/>
<path d="M56.2956 162.607C56.5721 163.865 56.5998 165.176 56.3766 166.447C56.1535 167.719 55.6849 168.919 55.0038 169.965C54.3228 171.011 53.446 171.877 52.435 172.501C51.424 173.125 50.3036 173.492 49.1526 173.577L41.7166 203.948L32.1155 191.635L40.6488 164.682C40.65 162.501 41.3636 160.395 42.6542 158.765C43.9449 157.135 45.723 156.093 47.6516 155.838C49.5803 155.582 51.5254 156.13 53.1186 157.377C54.7117 158.625 55.8421 160.486 56.2956 162.607Z" fill="#A0616A"/>
<path d="M27.0639 229.528C25.8702 229.523 24.695 229.197 23.6367 228.576C22.5784 227.956 21.6679 227.06 20.9815 225.962C20.295 224.865 19.8527 223.599 19.6915 222.271C19.5303 220.942 19.6549 219.589 20.0549 218.326L34.1913 173.706C34.5266 172.665 35.1953 171.802 36.0667 171.286C36.9382 170.771 37.9496 170.638 38.9032 170.916L49.205 173.979C49.7352 174.137 50.2302 174.418 50.6582 174.803C51.0862 175.188 51.4377 175.67 51.6902 176.217C51.9426 176.764 52.0905 177.364 52.1243 177.979C52.158 178.594 52.0769 179.21 51.8862 179.788L42.801 207.298L58.2112 201.792C59.5297 201.321 60.9207 201.161 62.2966 201.324C63.6726 201.486 65.0037 201.967 66.2061 202.736C67.4085 203.505 68.4561 204.545 69.283 205.791C70.11 207.037 70.6982 208.462 71.0108 209.976C71.3234 211.49 71.3536 213.06 71.0993 214.588C70.8451 216.116 70.312 217.568 69.5337 218.853C68.7553 220.138 67.7485 221.228 66.5767 222.054C65.4049 222.88 64.0935 223.425 62.7251 223.654L28.1882 229.434C27.8161 229.497 27.4403 229.528 27.0639 229.528Z" fill="#CCCCCC"/>
<path d="M83.0406 160.588C93.0723 160.588 101.205 155.107 101.205 148.345C101.205 141.584 93.0723 136.102 83.0406 136.102C73.0088 136.102 64.8765 141.584 64.8765 148.345C64.8765 155.107 73.0088 160.588 83.0406 160.588Z" fill="#2F2E41"/>
<path d="M138.333 294.852C137.219 294.512 136.186 293.902 135.306 293.065C134.425 292.228 133.719 291.184 133.237 290.007C132.754 288.83 132.507 287.548 132.513 286.252C132.52 284.957 132.779 283.678 133.272 282.507L113.262 260.441L127.508 257.002L144.325 278.483C146.022 279.545 147.313 281.269 147.953 283.329C148.594 285.388 148.54 287.64 147.801 289.658C147.062 291.676 145.69 293.319 143.945 294.276C142.2 295.234 140.203 295.439 138.333 294.852Z" fill="#A0616A"/>
<path d="M129.096 282.847C128.56 282.849 128.031 282.717 127.546 282.461C127.06 282.206 126.632 281.833 126.29 281.369L104.447 251.598L87.3503 214.714C86.8152 212.86 86.6833 210.889 86.9655 208.967C87.2477 207.044 87.9359 205.225 88.9724 203.662C89.9667 202.144 91.2723 200.918 92.7785 200.088C94.2847 199.257 95.947 198.848 97.6243 198.893C98.472 198.913 99.3162 199.022 100.146 199.218C101.843 199.646 103.419 200.544 104.729 201.83C106.039 203.115 107.042 204.748 107.648 206.58L122.131 244.803L139.488 269.399C140.08 270.243 140.353 271.315 140.247 272.383C140.141 273.451 139.665 274.43 138.922 275.106L131.369 281.949C130.725 282.532 129.923 282.849 129.096 282.847Z" fill="#CCCCCC"/>
<path d="M684.215 393.721H512.377C512.169 393.721 511.969 393.628 511.822 393.463C511.675 393.297 511.592 393.073 511.592 392.839C511.592 392.605 511.675 392.381 511.822 392.216C511.969 392.051 512.169 391.958 512.377 391.958H684.215C684.424 391.958 684.623 392.051 684.77 392.216C684.917 392.381 685 392.605 685 392.839C685 393.073 684.917 393.297 684.77 393.463C684.623 393.628 684.424 393.721 684.215 393.721Z" fill="#CCCCCC"/>
<path d="M533.079 218.959V220.074H365.399V218.907L366.302 217.473L419.462 133.164C419.708 132.781 420.032 132.469 420.406 132.254C420.781 132.039 421.195 131.926 421.616 131.926C422.037 131.926 422.451 132.039 422.826 132.254C423.2 132.469 423.524 132.781 423.77 133.164L459.416 189.698L484.792 149.808C485.038 149.427 485.362 149.117 485.735 148.902C486.109 148.688 486.522 148.577 486.942 148.577C487.361 148.577 487.775 148.688 488.149 148.902C488.522 149.117 488.845 149.427 489.092 149.808L532.177 217.533L533.079 218.959Z" fill="#E73F3F"/>
<path d="M365.052 162.865C375.83 162.865 384.568 153.049 384.568 140.94C384.568 128.832 375.83 119.016 365.052 119.016C354.273 119.016 345.535 128.832 345.535 140.94C345.535 153.049 354.273 162.865 365.052 162.865Z" fill="#E73F3F"/>
<path d="M638.011 220.956H257.455C253.919 220.951 250.528 219.371 248.027 216.562C245.527 213.752 244.12 209.944 244.116 205.971V115.181C244.12 111.208 245.527 107.399 248.027 104.59C250.528 101.781 253.919 100.201 257.455 100.196H638.011C641.547 100.201 644.938 101.781 647.438 104.59C649.939 107.399 651.346 111.208 651.35 115.181V205.971C651.346 209.944 649.939 213.752 647.438 216.562C644.938 219.371 641.547 220.951 638.011 220.956ZM257.455 101.959C254.335 101.963 251.343 103.357 249.136 105.836C246.93 108.315 245.689 111.675 245.685 115.181V205.971C245.689 209.476 246.93 212.837 249.136 215.316C251.343 217.794 254.335 219.189 257.455 219.193H638.011C641.131 219.189 644.123 217.794 646.329 215.316C648.536 212.837 649.777 209.476 649.78 205.971V115.181C649.777 111.675 648.536 108.315 646.329 105.836C644.123 103.357 641.131 101.963 638.011 101.959H257.455Z" fill="#3F3D56"/>
</g>
<defs>
<clipPath id="clip0">
<rect width="685" height="466" fill="white"/>
</clipPath>
</defs>
</svg>
